<?xml version="1.0" standalone="no"?>
<!DOCTYPE svg PUBLIC "-//W3C//DTD SVG 20010904//EN"
 "http://www.w3.org/TR/2001/REC-SVG-20010904/DTD/svg10.dtd">
<svg version="1.0" xmlns="http://www.w3.org/2000/svg"
 width="2048.000000pt" height="2048.000000pt" viewBox="0 0 2048.000000 2048.000000"
 preserveAspectRatio="xMidYMid meet">

<g transform="translate(0.000000,2048.000000) scale(0.100000,-0.100000)"
fill="#000000" stroke="none">
<path d="M10039 18626 c-3 -3 -100 -11 -215 -16 -900 -44 -1749 -219 -2574
-530 -1509 -570 -2824 -1569 -3783 -2873 -860 -1169 -1407 -2569 -1566 -4012
-35 -312 -42 -431 -48 -790 -16 -975 121 -1867 427 -2785 410 -1229 1089
-2328 2005 -3246 317 -317 558 -528 903 -787 1230 -925 2671 -1482 4232 -1636
455 -45 1105 -45 1560 0 1804 178 3432 888 4785 2088 173 153 521 502 677 678
1151 1302 1868 2911 2057 4618 40 355 46 475 46 925 0 453 -7 591 -46 940
-176 1571 -805 3079 -1794 4306 -343 424 -793 878 -1210 1219 -398 326 -861
637 -1320 887 -978 533 -2095 869 -3225 973 -253 23 -901 52 -911 41z m1186
-1590 c719 -353 1350 -1027 1880 -2005 69 -128 192 -378 216 -438 l9 -23
-1270 0 -1270 0 0 1320 0 1319 133 -45 c72 -25 209 -82 302 -128z m-1715
-1156 l0 -1310 -1240 0 c-682 0 -1240 3 -1240 8 0 15 218 449 289 576 571
1017 1293 1709 2086 2002 50 18 93 33 98 33 4 1 7 -588 7 -1309z m4608 272
c413 -272 767 -566 1132 -938 200 -204 417 -452 553 -631 8 -10 -102 -13 -539
-13 l-549 1 -62 157 c-189 482 -455 1006 -726 1430 -62 97 -114 180 -116 185
-4 11 94 -49 307 -191z m-7677 26 c-286 -449 -555 -981 -761 -1508 -18 -47
-36 -88 -40 -93 -3 -4 -241 -6 -528 -5 l-523 3 97 120 c403 499 895 963 1407
1328 156 111 406 276 419 277 4 0 -28 -55 -71 -122z m-1201 -2897 c0 -5 -13
-64 -29 -132 -134 -560 -242 -1276 -286 -1894 -9 -121 -18 -248 -21 -282 l-6
-63 -869 0 -869 0 0 23 c0 32 37 331 56 447 93 581 269 1185 499 1705 37 83
71 162 77 178 l10 27 719 0 c415 0 719 -4 719 -9z m4270 -1181 l0 -1190 -1664
0 -1664 0 4 58 c51 709 122 1221 250 1797 43 194 121 501 130 517 3 4 666 8
1475 8 l1469 0 0 -1190z m4294 1138 c134 -482 247 -1078 310 -1633 26 -231 56
-576 56 -651 l0 -44 -1690 0 -1690 0 0 1190 0 1190 1500 0 1499 0 15 -52z
m2863 -110 c289 -657 475 -1336 558 -2043 8 -71 15 -140 15 -152 l0 -23 -895
0 -895 0 0 63 c0 73 -24 389 -45 602 -53 526 -146 1092 -258 1573 l-34 142
741 0 741 0 72 -162z m-11763 -3565 c3 -38 8 -113 11 -168 35 -595 139 -1324
276 -1930 27 -121 52 -232 56 -247 l6 -28 -711 0 -710 0 -32 68 c-265 559
-468 1209 -574 1837 -27 159 -66 460 -66 507 l0 28 869 0 869 0 6 -67z m4606
-1153 l0 -1220 -1465 0 -1464 0 -20 68 c-32 108 -107 414 -145 593 -101 470
-183 1047 -215 1519 -6 85 -13 179 -16 208 l-5 52 1665 0 1665 0 0 -1220z
m4656 1093 c-37 -680 -179 -1550 -358 -2200 l-30 -113 -1494 0 -1494 0 0 1220
0 1220 1691 0 1692 0 -7 -127z m3074 99 c0 -47 -39 -348 -66 -507 -102 -604
-293 -1226 -543 -1772 l-59 -128 -735 -3 -734 -2 34 142 c152 646 269 1441
304 2068 6 113 13 211 15 218 3 9 190 12 894 12 l890 0 0 -28z m-11515 -3859
c211 -518 456 -991 750 -1447 26 -41 32 -57 21 -53 -40 15 -378 247 -543 371
-312 235 -571 463 -829 729 -135 139 -351 384 -454 515 l-42 52 515 0 514 0
68 -167z m3785 -1118 c0 -805 -4 -1285 -10 -1285 -5 0 -51 15 -102 34 -756
274 -1452 928 -2023 1901 -82 139 -325 608 -325 627 0 4 554 8 1230 8 l1230 0
0 -1285z m3783 1248 c-8 -21 -57 -121 -108 -223 -517 -1025 -1190 -1772 -1930
-2146 -141 -71 -357 -159 -437 -178 l-28 -6 0 1295 0 1295 1259 0 1260 0 -16
-37z m2437 -15 c-213 -269 -602 -678 -857 -901 -159 -138 -375 -310 -538 -427
-169 -122 -515 -348 -515 -336 0 2 47 79 105 169 279 440 584 1047 764 1520
l11 27 536 0 536 0 -42 -52z"/>
</g>
</svg>
